<svg width="47" height="47" viewBox="0 0 47 47" fill="none" xmlns="http://www.w3.org/2000/svg">
<path d="M43.8406 2.83607C47.7738 6.68315 46.3154 5.31096 43.8406 8.49293L10.6066 41.7269L4.77292 43.3179L2.82838 43.8483L3.35871 41.9037L4.9497 36.0701L38.1837 2.83608C41.7191 0.00777518 39.9073 -1.011 43.8406 2.83607Z" fill="white"/>
<path d="M10.6066 41.7269L43.8406 8.49293M10.6066 41.7269L9.19234 40.3127M10.6066 41.7269L4.77292 43.3179M4.9497 36.0701L38.1837 2.83608M4.9497 36.0701L6.36391 37.4843M4.9497 36.0701L3.35871 41.9037M43.8406 8.49293C46.3154 5.31096 47.7738 6.68315 43.8406 2.83607C39.9073 -1.011 41.7191 0.00777518 38.1837 2.83608M43.8406 8.49293L42.4264 7.07871M38.1837 2.83608L39.5979 4.25029M42.4264 7.07871L9.19234 40.3127M42.4264 7.07871L41.0121 5.6645M9.19234 40.3127L7.77812 38.8985M7.77812 38.8985L41.0121 5.6645M7.77812 38.8985L6.36391 37.4843M41.0121 5.6645L39.5979 4.25029M39.5979 4.25029L6.36391 37.4843M4.77292 43.3179L2.82838 43.8483L3.35871 41.9037M4.77292 43.3179L3.35871 41.9037" stroke="black" stroke-width="0.5" stroke-linecap="round" stroke-linejoin="round"/>
</svg>
